# Blender v2.77 (sub 0) OBJ File: 'text.blend'
# www.blender.org
mtllib meshL.mtl
o Mesh_L_Cube.012
v 0.387030 1.857643 0.000000
v 0.387030 0.001140 0.000000
v 0.117876 1.857643 0.000000
v 0.117876 0.001140 0.000000
v 0.387030 0.217633 0.000000
v 0.117876 0.217633 0.000000
v -0.757355 0.001140 0.000000
v -0.757355 0.217633 0.000000
v 0.387030 1.857643 0.274000
v 0.387030 0.001140 0.274000
v 0.117876 1.857643 0.274000
v 0.117876 0.001140 0.274000
v 0.387030 0.217633 0.274000
v 0.117876 0.217633 0.274000
v -0.757355 0.001140 0.274000
v -0.757355 0.217633 0.274000
vn 0.0000 0.0000 -1.0000
vn 0.0000 0.0000 1.0000
vn 0.0000 1.0000 0.0000
vn 0.0000 -1.0000 0.0000
vn 1.0000 0.0000 0.0000
vn -1.0000 0.0000 0.0000
usemtl Material
s off
f 6//1 5//1 2//1 4//1
f 3//1 1//1 5//1 6//1
f 6//1 4//1 7//1 8//1
f 12//2 10//2 13//2 14//2
f 14//2 13//2 9//2 11//2
f 16//2 15//2 12//2 14//2
f 1//3 3//3 11//3 9//3
f 4//4 2//4 10//4 12//4
f 2//5 5//5 13//5 10//5
f 5//5 1//5 9//5 13//5
f 3//6 6//6 14//6 11//6
f 8//6 7//6 15//6 16//6
f 7//4 4//4 12//4 15//4
f 6//3 8//3 16//3 14//3
