# Blender v2.77 (sub 0) OBJ File: 'text.blend'
# www.blender.org
mtllib meshR.mtl
o Mesh_R_Cube.018
v 0.660937 1.853309 -0.000000
v 0.660937 0.002733 -0.000000
v 0.391782 1.853309 -0.000000
v 0.391782 0.002733 -0.000000
v 0.660937 1.598262 -0.000000
v 0.391782 1.598262 -0.000000
v 0.660937 0.732290 -0.000000
v 0.391782 0.732290 -0.000000
v 0.660937 0.960646 -0.000000
v 0.391782 0.960646 -0.000000
v -0.213463 1.853309 -0.000000
v -0.213463 1.598262 -0.000000
v -0.133110 0.732290 -0.000000
v -0.133110 0.960646 -0.000000
v -0.737014 1.226748 -0.000000
v -0.493153 1.226748 -0.000000
v -0.623865 1.699196 -0.000000
v -0.426194 1.521813 -0.000000
v -0.381206 0.795413 -0.000000
v -0.281080 1.016923 -0.000000
v -0.493153 1.373157 -0.000000
v -0.737014 1.373157 -0.000000
v -0.724943 1.554856 -0.000000
v -0.459673 1.447485 -0.000000
v -0.693264 1.028823 -0.000000
v -0.444403 1.146330 -0.000000
v -0.319829 1.560037 -0.000000
v -0.419488 1.806333 -0.000000
v -0.617621 0.002733 -0.000000
v -0.963951 0.002733 -0.000000
v 0.660937 1.853309 0.274000
v 0.660937 0.002733 0.274000
v 0.391782 1.853309 0.274000
v 0.391782 0.002733 0.274000
v 0.660937 1.598262 0.274000
v 0.391782 1.598262 0.274000
v 0.660937 0.732290 0.274000
v 0.391782 0.732290 0.274000
v 0.660937 0.960646 0.274000
v 0.391782 0.960646 0.274000
v -0.213463 1.853309 0.274000
v -0.213463 1.598262 0.274000
v -0.133110 0.732290 0.274000
v -0.133110 0.960646 0.273992
v -0.737014 1.226748 0.274000
v -0.493153 1.226748 0.273992
v -0.623865 1.699196 0.274000
v -0.426194 1.521813 0.274000
v -0.381206 0.795413 0.274000
v -0.281080 1.016923 0.273992
v -0.493153 1.373157 0.274000
v -0.737014 1.373157 0.274000
v -0.724943 1.554856 0.274000
v -0.459673 1.447485 0.274000
v -0.693264 1.028823 0.274000
v -0.444403 1.146330 0.274000
v -0.319829 1.560037 0.274000
v -0.419488 1.806333 0.274000
v -0.617621 0.002733 0.274000
v -0.963951 0.002733 0.274000
vn 0.0000 0.0000 -1.0000
vn 0.0000 0.0000 1.0000
vn 0.0000 -1.0000 0.0000
vn 1.0000 0.0000 0.0000
vn -1.0000 0.0000 0.0000
vn 0.8330 -0.5532 0.0000
vn -0.8057 0.5923 0.0000
vn 0.5773 0.5773 -0.5773
vn 0.0000 0.7071 -0.7071
vn 0.0000 0.7071 0.7071
vn 0.5773 0.5773 0.5773
vn -0.3015 0.3015 -0.9045
vn 0.1195 0.6504 -0.7501
vn 0.1195 0.6504 0.7501
vn -0.3015 0.3015 0.9045
vn -0.0817 0.7260 -0.6828
vn -0.0817 0.7260 0.6828
vn 0.1139 -0.6540 -0.7479
vn -0.3015 -0.3015 -0.9045
vn -0.3015 -0.3015 0.9045
vn 0.1139 -0.6540 0.7479
vn -0.7256 -0.0792 -0.6835
vn -0.6480 -0.4182 -0.6365
vn -0.6480 -0.4182 0.6365
vn -0.7256 -0.0792 0.6835
vn 0.4014 -0.4341 -0.8064
vn 0.2391 -0.6654 -0.7071
vn 0.2391 -0.6654 0.7071
vn 0.4014 -0.4341 0.8064
vn -0.2541 0.6886 -0.6792
vn -0.2541 0.6886 0.6792
vn 0.6110 0.1707 -0.7730
vn 0.6382 -0.1371 -0.7576
vn 0.6382 -0.1371 0.7576
vn 0.6110 0.1707 0.7729
vn -0.4975 0.5657 -0.6576
vn -0.7157 0.2521 -0.6513
vn -0.7157 0.2521 0.6513
vn -0.4975 0.5657 0.6576
vn 0.3306 0.5817 -0.7431
vn 0.3306 0.5817 0.7431
vn 0.4967 0.4382 -0.7492
vn 0.4967 0.4382 0.7492
vn 0.6447 -0.2904 -0.7071
vn 0.6447 -0.2904 0.7071
vn -0.7140 0.0237 -0.6997
vn -0.7140 0.0237 0.6997
vn -0.4238 -0.0629 -0.9036
vn -0.4238 -0.0629 0.9036
usemtl Material
s off
f 8//1 7//1 2//1 4//1
f 3//1 1//1 5//1 6//1
f 10//1 9//1 7//1 8//1
f 6//1 5//1 9//1 10//1
f 10//1 8//1 13//1 14//1
f 3//1 6//1 12//1 11//1
f 26//1 25//1 15//1 16//1
f 22//1 21//1 16//1 15//1
f 28//1 27//1 18//1 17//1
f 14//1 13//1 19//1 20//1
f 23//1 24//1 21//1 22//1
f 17//1 18//1 24//1 23//1
f 20//1 19//1 25//1 26//1
f 11//1 12//1 27//1 28//1
f 19//1 13//1 29//1 30//1
f 34//2 32//2 37//2 38//2
f 36//2 35//2 31//2 33//2
f 38//2 37//2 39//2 40//2
f 40//2 39//2 35//2 36//2
f 44//2 43//2 38//2 40//2
f 41//2 42//2 36//2 33//2
f 46//2 45//2 55//2 56//2
f 45//2 46//2 51//2 52//2
f 47//2 48//2 57//2 58//2
f 50//2 49//2 43//2 44//2
f 52//2 51//2 54//2 53//2
f 53//2 54//2 48//2 47//2
f 56//2 55//2 49//2 50//2
f 58//2 57//2 42//2 41//2
f 60//2 59//2 43//2 49//2
f 4//3 2//3 32//3 34//3
f 2//4 7//4 37//4 32//4
f 8//5 4//5 34//5 38//5
f 5//4 1//4 31//4 35//4
f 7//4 9//4 39//4 37//4
f 9//4 5//4 35//4 39//4
f 6//5 10//5 40//5 36//5
f 13//3 8//3 38//3 43//3
f 30//3 29//3 59//3 60//3
f 29//6 13//6 43//6 59//6
f 19//7 30//7 60//7 49//7
s 1
f 1//8 3//9 33//10 31//11
f 10//12 14//13 44//14 40//15
f 3//9 11//16 41//17 33//10
f 12//18 6//19 36//20 42//21
f 15//22 25//23 55//24 45//25
f 18//26 27//27 57//28 48//29
f 11//16 28//30 58//31 41//17
f 16//32 21//33 51//34 46//35
f 17//36 23//37 53//38 47//39
f 14//13 20//40 50//41 44//14
f 20//40 26//42 56//43 50//41
f 21//33 24//44 54//45 51//34
f 22//46 15//22 45//25 52//47
f 23//37 22//46 52//47 53//38
f 24//44 18//26 48//29 54//45
f 25//23 19//48 49//49 55//24
f 26//42 16//32 46//35 56//43
f 27//27 12//18 42//21 57//28
f 28//30 17//36 47//39 58//31
