# Blender v2.77 (sub 0) OBJ File: 'text.blend'
# www.blender.org
mtllib meshF.mtl
o Mesh_F_Cube.006
v 0.422189 1.818924 0.000000
v 0.188409 1.818924 0.000000
v 0.422189 1.627242 0.000000
v 0.188409 1.627242 0.000000
v 0.422189 0.001523 0.000000
v 0.188409 0.001523 0.000000
v 0.422189 1.047191 0.000000
v 0.188409 1.047191 0.000000
v 0.422189 0.831037 0.000000
v 0.188409 0.831037 0.000000
v -0.844063 1.818924 0.000000
v -0.844063 1.627242 0.000000
v -0.682427 1.047191 0.000000
v -0.682427 0.831037 0.000000
v 0.422189 1.818924 0.274000
v 0.188409 1.818924 0.274000
v 0.422189 1.627242 0.274000
v 0.188409 1.627242 0.274000
v 0.422189 0.001523 0.274000
v 0.188409 0.001523 0.274000
v 0.422189 1.047191 0.274000
v 0.188409 1.047191 0.274000
v 0.422189 0.831037 0.274000
v 0.188409 0.831037 0.274000
v -0.844063 1.818924 0.274000
v -0.844063 1.627242 0.274000
v -0.682427 1.047191 0.274000
v -0.682427 0.831037 0.274000
vn 0.0000 0.0000 -1.0000
vn 0.0000 0.0000 1.0000
vn 0.0000 1.0000 0.0000
vn 1.0000 0.0000 0.0000
vn -1.0000 0.0000 0.0000
vn 0.0000 -1.0000 0.0000
usemtl Material
s off
f 1//1 3//1 4//1 2//1
f 9//1 5//1 6//1 10//1
f 3//1 7//1 8//1 4//1
f 7//1 9//1 10//1 8//1
f 8//1 10//1 14//1 13//1
f 2//1 4//1 12//1 11//1
f 16//2 18//2 17//2 15//2
f 24//2 20//2 19//2 23//2
f 18//2 22//2 21//2 17//2
f 22//2 24//2 23//2 21//2
f 27//2 28//2 24//2 22//2
f 25//2 26//2 18//2 16//2
f 1//3 2//3 16//3 15//3
f 3//4 1//4 15//4 17//4
f 5//4 9//4 23//4 19//4
f 10//5 6//5 20//5 24//5
f 6//6 5//6 19//6 20//6
f 7//4 3//4 17//4 21//4
f 4//5 8//5 22//5 18//5
f 9//4 7//4 21//4 23//4
f 11//5 12//5 26//5 25//5
f 13//5 14//5 28//5 27//5
f 8//3 13//3 27//3 22//3
f 14//6 10//6 24//6 28//6
f 2//3 11//3 25//3 16//3
f 12//6 4//6 18//6 26//6
