# Blender v2.77 (sub 0) OBJ File: 'text.blend'
# www.blender.org
mtllib meshV.mtl
o Mesh_V_Cube.022
v 0.821919 1.833164 0.000000
v 0.568890 1.833164 0.000000
v 0.163269 0.002591 0.000000
v 0.000003 0.002591 0.000000
v 0.000003 0.270070 0.000000
v 0.259510 0.270070 0.000000
v -0.821915 1.833164 0.000000
v -0.568885 1.833164 0.000000
v -0.163264 0.002591 0.000000
v -0.259505 0.270070 0.000000
v 0.821919 1.833164 0.274000
v 0.568890 1.833164 0.274000
v 0.163269 0.002591 0.274000
v 0.000003 0.002591 0.274000
v 0.000003 0.270070 0.274000
v 0.259510 0.270070 0.274000
v -0.821915 1.833164 0.274000
v -0.568885 1.833164 0.274000
v -0.163264 0.002591 0.274000
v -0.259505 0.270070 0.274000
vn 0.0000 0.0000 -1.0000
vn 0.0000 0.0000 1.0000
vn 0.0000 1.0000 0.0000
vn 0.0000 -1.0000 0.0000
vn 0.9409 -0.3386 0.0000
vn -0.9397 0.3420 0.0000
vn -0.9409 -0.3386 0.0000
vn 0.9397 0.3420 0.0000
usemtl Material
s off
f 6//1 3//1 4//1 5//1
f 1//1 6//1 5//1 2//1
f 10//1 5//1 4//1 9//1
f 7//1 8//1 5//1 10//1
f 15//2 14//2 13//2 16//2
f 12//2 15//2 16//2 11//2
f 19//2 14//2 15//2 20//2
f 20//2 15//2 18//2 17//2
f 1//3 2//3 12//3 11//3
f 4//4 3//4 13//4 14//4
f 6//5 1//5 11//5 16//5
f 2//6 5//6 15//6 12//6
f 3//5 6//5 16//5 13//5
f 8//3 7//3 17//3 18//3
f 7//7 10//7 20//7 17//7
f 10//7 9//7 19//7 20//7
f 9//4 4//4 14//4 19//4
f 5//8 8//8 18//8 15//8
