# Blender v2.77 (sub 0) OBJ File: 'text.blend'
# www.blender.org
mtllib meshN.mtl
o Mesh_N_Cube.014
v 0.735676 1.854404 0.000000
v 0.735676 -0.002099 0.000000
v 0.466520 1.854404 0.000000
v 0.466520 -0.002099 0.000000
v 0.735676 1.412521 0.000000
v 0.466520 1.412521 0.000000
v -0.465913 1.854404 0.000000
v -0.465913 -0.002099 0.000000
v -0.735068 1.854404 0.000000
v -0.735068 -0.002099 0.000000
v -0.465913 0.445716 0.000000
v -0.735068 0.445716 0.000000
v 0.735676 1.854404 0.274000
v 0.735676 -0.002099 0.274000
v 0.466520 1.854404 0.274000
v 0.466520 -0.002099 0.274000
v 0.735676 1.412521 0.274000
v 0.466520 1.412521 0.273992
v -0.465913 1.854404 0.274000
v -0.465913 -0.002099 0.274000
v -0.735068 1.854404 0.274000
v -0.735068 -0.002099 0.274000
v -0.465913 0.445716 0.274000
v -0.735068 0.445716 0.274000
vn 0.0000 0.0000 -1.0000
vn -0.0000 0.0000 1.0000
vn 0.0000 1.0000 0.0000
vn 0.0000 -1.0000 0.0000
vn 1.0000 0.0000 0.0000
vn -1.0000 0.0000 0.0000
vn -0.8339 0.5520 0.0000
vn 0.8349 -0.5503 0.0000
usemtl Material
s off
f 6//1 5//1 2//1 4//1
f 3//1 1//1 5//1 6//1
f 12//1 11//1 8//1 10//1
f 9//1 7//1 11//1 12//1
f 6//1 8//1 11//1 3//1
f 16//2 14//2 17//2 18//2
f 18//2 17//2 13//2 15//2
f 22//2 20//2 23//2 24//2
f 24//2 23//2 19//2 21//2
f 15//2 23//2 20//2 18//2
f 1//3 3//3 15//3 13//3
f 4//4 2//4 14//4 16//4
f 2//5 5//5 17//5 14//5
f 6//6 4//6 16//6 18//6
f 5//5 1//5 13//5 17//5
f 7//3 9//3 21//3 19//3
f 10//4 8//4 20//4 22//4
f 12//6 10//6 22//6 24//6
f 11//5 7//5 19//5 23//5
f 9//6 12//6 24//6 21//6
f 3//7 11//7 23//7 15//7
f 8//8 6//8 18//8 20//8
