# Blender v2.77 (sub 0) OBJ File: 'text.blend'
# www.blender.org
mtllib meshP.mtl
o Mesh_P_Cube.016
v 0.541099 1.856568 -0.000000
v 0.541099 0.000065 -0.000000
v 0.271943 1.856568 -0.000000
v 0.271943 0.000065 -0.000000
v 0.541099 1.601521 -0.000000
v 0.271943 1.601521 -0.000000
v 0.541099 0.735549 -0.000000
v 0.271943 0.735549 -0.000000
v 0.541099 0.963904 -0.000000
v 0.271943 0.963904 -0.000000
v -0.333302 1.856568 -0.000000
v -0.333302 1.601521 -0.000000
v -0.333302 0.735549 -0.000000
v -0.333302 0.963904 -0.000000
v -0.856853 1.230007 -0.000000
v -0.612991 1.230007 -0.000000
v -0.716506 1.692565 -0.000000
v -0.546032 1.525071 -0.000000
v -0.633712 0.834156 -0.000000
v -0.474284 1.017662 -0.000000
v -0.612991 1.376415 -0.000000
v -0.856853 1.376415 -0.000000
v -0.817584 1.548226 -0.000000
v -0.579511 1.450743 -0.000000
v -0.813102 1.032081 -0.000000
v -0.564241 1.149589 -0.000000
v -0.439667 1.563296 -0.000000
v -0.539326 1.809592 -0.000000
v 0.541099 1.856568 0.274000
v 0.541099 0.000065 0.274000
v 0.271943 1.856568 0.274000
v 0.271943 0.000065 0.274000
v 0.541099 1.601521 0.274000
v 0.271943 1.601521 0.274000
v 0.541099 0.735549 0.274000
v 0.271943 0.735549 0.274000
v 0.541099 0.963904 0.274000
v 0.271943 0.963904 0.274000
v -0.333302 1.856568 0.274000
v -0.333302 1.601521 0.274000
v -0.333302 0.735549 0.274000
v -0.333302 0.963904 0.273992
v -0.856853 1.230007 0.274000
v -0.612991 1.230007 0.274000
v -0.716506 1.692565 0.274000
v -0.546032 1.525071 0.274000
v -0.633712 0.834156 0.274000
v -0.474284 1.017662 0.274000
v -0.612991 1.376415 0.274000
v -0.856853 1.376415 0.274000
v -0.817584 1.548226 0.274000
v -0.579511 1.450743 0.274000
v -0.813102 1.032081 0.274000
v -0.564241 1.149589 0.274000
v -0.439667 1.563296 0.274000
v -0.539326 1.809592 0.274000
vn 0.0000 0.0000 -1.0000
vn 0.0000 0.0000 1.0000
vn 0.0000 -1.0000 0.0000
vn 1.0000 0.0000 0.0000
vn -1.0000 0.0000 0.0000
vn 0.5773 0.5773 -0.5773
vn 0.0000 0.7071 -0.7071
vn 0.0000 0.7071 0.7071
vn 0.5773 0.5773 0.5773
vn -0.3015 0.3015 -0.9045
vn 0.1198 0.6502 -0.7502
vn 0.1198 0.6502 0.7502
vn -0.3015 0.3015 0.9045
vn -0.1168 -0.7301 -0.6732
vn -0.3015 -0.3015 -0.9045
vn -0.3015 -0.3015 0.9045
vn -0.1168 -0.7301 0.6732
vn -0.0817 0.7260 -0.6828
vn -0.0817 0.7260 0.6828
vn 0.1139 -0.6540 -0.7479
vn 0.1139 -0.6540 0.7479
vn -0.7256 -0.0792 -0.6835
vn -0.6723 -0.3474 -0.6537
vn -0.6723 -0.3474 0.6537
vn -0.7256 -0.0792 0.6835
vn 0.4014 -0.4341 -0.8064
vn 0.2391 -0.6654 -0.7071
vn 0.2391 -0.6654 0.7071
vn 0.4014 -0.4341 0.8064
vn -0.2921 0.6834 -0.6690
vn -0.2921 0.6834 0.6690
vn 0.6110 0.1707 -0.7730
vn 0.6382 -0.1371 -0.7576
vn 0.6382 -0.1371 0.7576
vn 0.6110 0.1707 0.7730
vn -0.5194 0.5337 -0.6673
vn -0.6815 0.3025 -0.6663
vn -0.6815 0.3025 0.6663
vn -0.5194 0.5337 0.6673
vn 0.3869 0.4901 -0.7811
vn 0.3869 0.4901 0.7811
vn -0.4120 -0.6346 -0.6538
vn -0.4120 -0.6346 0.6538
vn 0.5895 0.3793 -0.7132
vn 0.5895 0.3793 0.7132
vn 0.6447 -0.2904 -0.7071
vn 0.6447 -0.2904 0.7071
vn -0.7261 0.0819 -0.6827
vn -0.7261 0.0819 0.6827
usemtl Material
s off
f 8//1 7//1 2//1 4//1
f 3//1 1//1 5//1 6//1
f 10//1 9//1 7//1 8//1
f 6//1 5//1 9//1 10//1
f 10//1 8//1 13//1 14//1
f 3//1 6//1 12//1 11//1
f 26//1 25//1 15//1 16//1
f 22//1 21//1 16//1 15//1
f 28//1 27//1 18//1 17//1
f 14//1 13//1 19//1 20//1
f 23//1 24//1 21//1 22//1
f 17//1 18//1 24//1 23//1
f 20//1 19//1 25//1 26//1
f 11//1 12//1 27//1 28//1
f 32//2 30//2 35//2 36//2
f 34//2 33//2 29//2 31//2
f 36//2 35//2 37//2 38//2
f 38//2 37//2 33//2 34//2
f 42//2 41//2 36//2 38//2
f 39//2 40//2 34//2 31//2
f 44//2 43//2 53//2 54//2
f 43//2 44//2 49//2 50//2
f 45//2 46//2 55//2 56//2
f 48//2 47//2 41//2 42//2
f 50//2 49//2 52//2 51//2
f 51//2 52//2 46//2 45//2
f 54//2 53//2 47//2 48//2
f 56//2 55//2 40//2 39//2
f 4//3 2//3 30//3 32//3
f 2//4 7//4 35//4 30//4
f 8//5 4//5 32//5 36//5
f 5//4 1//4 29//4 33//4
f 7//4 9//4 37//4 35//4
f 9//4 5//4 33//4 37//4
f 6//5 10//5 38//5 34//5
s 1
f 1//6 3//7 31//8 29//9
f 10//10 14//11 42//12 38//13
f 13//14 8//15 36//16 41//17
f 3//7 11//18 39//19 31//8
f 12//20 6//15 34//16 40//21
f 15//22 25//23 53//24 43//25
f 18//26 27//27 55//28 46//29
f 11//18 28//30 56//31 39//19
f 16//32 21//33 49//34 44//35
f 17//36 23//37 51//38 45//39
f 14//11 20//40 48//41 42//12
f 19//42 13//14 41//17 47//43
f 20//40 26//44 54//45 48//41
f 21//33 24//46 52//47 49//34
f 22//48 15//22 43//25 50//49
f 23//37 22//48 50//49 51//38
f 24//46 18//26 46//29 52//47
f 25//23 19//42 47//43 53//24
f 26//44 16//32 44//35 54//45
f 27//27 12//20 40//21 55//28
f 28//30 17//36 45//39 56//31
