# Blender v2.77 (sub 0) OBJ File: 'text.blend'
# www.blender.org
mtllib meshA.mtl
o Mesh_A_Cube.001
v 0.554971 -0.004543 0.000000
v 0.848690 -0.004543 0.000000
v 0.142577 1.796343 0.000000
v 0.304645 0.720172 0.000000
v 0.532210 0.802616 0.000000
v 0.359935 0.560103 0.000000
v 0.602111 0.624338 0.000000
v 0.078192 1.796343 0.000000
v 0.000000 1.612398 0.000000
v -0.554971 -0.004543 0.000000
v -0.848690 -0.004543 0.000000
v -0.142577 1.796343 0.000000
v -0.304645 0.720172 0.000000
v -0.532210 0.802616 0.000000
v -0.359935 0.560103 0.000000
v -0.602111 0.624338 0.000000
v 0.000000 0.720172 0.000000
v 0.000000 0.560103 0.000000
v -0.078192 1.796343 0.000000
v 0.000000 1.796343 0.000000
v 0.554971 -0.004543 0.274000
v 0.848690 -0.004543 0.273992
v 0.142577 1.796343 0.274000
v 0.304645 0.720172 0.274000
v 0.532210 0.802616 0.274000
v 0.359935 0.560103 0.274000
v 0.602111 0.624338 0.274000
v 0.078192 1.796343 0.274000
v 0.000000 1.612398 0.274000
v -0.554971 -0.004543 0.274000
v -0.848690 -0.004543 0.273992
v -0.142577 1.796343 0.274000
v -0.304645 0.720172 0.274000
v -0.532210 0.802616 0.274000
v -0.359935 0.560103 0.274000
v -0.602111 0.624338 0.274000
v 0.000000 0.720172 0.274000
v 0.000000 0.560103 0.274000
v -0.078192 1.796343 0.274000
v 0.000000 1.796343 0.274000
vn 0.0000 -0.0000 -1.0000
vn -0.0000 0.0000 1.0000
vn -0.9452 -0.3265 0.0000
vn 0.0000 -1.0000 0.0000
vn 0.9310 0.3650 0.0000
vn -0.9464 -0.3231 0.0000
vn 0.0000 1.0000 0.0000
vn 0.9452 -0.3265 0.0000
vn -0.9310 0.3650 0.0000
vn 0.9464 -0.3231 0.0000
usemtl Material
s off
f 4//1 9//1 3//1 5//1
f 6//1 4//1 5//1 7//1
f 1//1 6//1 7//1 2//1
f 6//1 18//1 17//1 4//1
f 20//1 8//1 3//1 9//1
f 13//1 14//1 12//1 9//1
f 15//1 16//1 14//1 13//1
f 10//1 11//1 16//1 15//1
f 15//1 13//1 17//1 18//1
f 20//1 9//1 12//1 19//1
f 25//2 23//2 29//2 24//2
f 27//2 25//2 24//2 26//2
f 22//2 27//2 26//2 21//2
f 24//2 37//2 38//2 26//2
f 29//2 23//2 28//2 40//2
f 29//2 32//2 34//2 33//2
f 33//2 34//2 36//2 35//2
f 35//2 36//2 31//2 30//2
f 38//2 37//2 33//2 35//2
f 39//2 32//2 29//2 40//2
f 6//3 1//3 21//3 26//3
f 1//4 2//4 22//4 21//4
f 5//5 3//5 23//5 25//5
f 9//6 4//6 24//6 29//6
f 7//5 5//5 25//5 27//5
f 2//5 7//5 27//5 22//5
f 4//7 17//7 37//7 24//7
f 18//4 6//4 26//4 38//4
f 3//7 8//7 28//7 23//7
f 8//7 20//7 40//7 28//7
f 10//8 15//8 35//8 30//8
f 11//4 10//4 30//4 31//4
f 12//9 14//9 34//9 32//9
f 13//10 9//10 29//10 33//10
f 14//9 16//9 36//9 34//9
f 16//9 11//9 31//9 36//9
f 17//7 13//7 33//7 37//7
f 15//4 18//4 38//4 35//4
f 19//7 12//7 32//7 39//7
f 20//7 19//7 39//7 40//7
