# Blender v2.77 (sub 0) OBJ File: 'text.blend'
# www.blender.org
mtllib meshH.mtl
o Mesh_H_Cube.008
v 0.728428 1.865632 0.000000
v 0.728428 0.009130 0.000000
v 0.459272 1.865632 0.000000
v 0.459272 0.009130 0.000000
v 0.459272 0.840419 0.000000
v 0.728428 0.840419 0.000000
v 0.459272 1.086412 0.000000
v 0.728428 1.086412 0.000000
v -0.459272 1.865632 0.000000
v -0.459272 0.009130 0.000000
v -0.728428 1.865632 0.000000
v -0.728428 0.009130 0.000000
v -0.728428 0.840419 0.000000
v -0.459272 0.840419 0.000000
v -0.728428 1.086412 0.000000
v -0.459272 1.086412 0.000000
v 0.728428 1.865632 0.274000
v 0.728428 0.009130 0.274000
v 0.459272 1.865632 0.274000
v 0.459272 0.009130 0.274000
v 0.459272 0.840419 0.274000
v 0.728428 0.840419 0.274000
v 0.459272 1.086412 0.274000
v 0.728428 1.086412 0.274000
v -0.459272 1.865632 0.274000
v -0.459272 0.009130 0.274000
v -0.728428 1.865632 0.274000
v -0.728428 0.009130 0.274000
v -0.728428 0.840419 0.274000
v -0.459272 0.840419 0.274000
v -0.728428 1.086412 0.274000
v -0.459272 1.086412 0.274000
vn 0.0000 0.0000 -1.0000
vn 0.0000 0.0000 1.0000
vn 0.0000 1.0000 0.0000
vn 0.0000 -1.0000 0.0000
vn 1.0000 0.0000 0.0000
vn -1.0000 0.0000 0.0000
usemtl Material
s off
f 5//1 6//1 2//1 4//1
f 3//1 1//1 8//1 7//1
f 7//1 8//1 6//1 5//1
f 13//1 14//1 10//1 12//1
f 11//1 9//1 16//1 15//1
f 15//1 16//1 14//1 13//1
f 5//1 14//1 16//1 7//1
f 20//2 18//2 22//2 21//2
f 23//2 24//2 17//2 19//2
f 21//2 22//2 24//2 23//2
f 28//2 26//2 30//2 29//2
f 31//2 32//2 25//2 27//2
f 29//2 30//2 32//2 31//2
f 23//2 32//2 30//2 21//2
f 1//3 3//3 19//3 17//3
f 4//4 2//4 18//4 20//4
f 2//5 6//5 22//5 18//5
f 5//6 4//6 20//6 21//6
f 6//5 8//5 24//5 22//5
f 3//6 7//6 23//6 19//6
f 8//5 1//5 17//5 24//5
f 9//3 11//3 27//3 25//3
f 12//4 10//4 26//4 28//4
f 10//5 14//5 30//5 26//5
f 13//6 12//6 28//6 29//6
f 11//6 15//6 31//6 27//6
f 16//5 9//5 25//5 32//5
f 15//6 13//6 29//6 31//6
f 7//3 16//3 32//3 23//3
f 14//4 5//4 21//4 30//4
