# Blender v2.77 (sub 0) OBJ File: 'text.blend'
# www.blender.org
mtllib meshS.mtl
o Mesh_S_Cube.019
v 0.018344 1.856228 -0.000000
v 0.018344 1.646030 -0.000000
v -0.629851 1.312029 -0.000000
v -0.384049 1.312029 -0.000000
v -0.308982 1.591159 -0.000000
v -0.467987 1.739833 -0.000000
v -0.377445 1.473087 -0.000000
v -0.600184 1.514817 -0.000000
v -0.239727 1.841279 -0.000000
v -0.197306 1.641907 -0.000000
v 0.666539 1.312029 -0.000000
v 0.420737 1.312029 -0.000000
v 0.345670 1.591159 -0.000000
v 0.504675 1.739833 -0.000000
v 0.414133 1.473087 -0.000000
v 0.636872 1.514817 -0.000000
v 0.276415 1.841279 -0.000000
v 0.233994 1.641907 -0.000000
v 0.009266 0.842647 -0.000000
v -0.058725 1.065785 -0.000000
v 0.463850 0.986387 -0.000000
v 0.274171 1.152680 -0.000000
v 0.369453 1.218939 -0.000000
v 0.603931 1.116069 -0.000000
v 0.193502 0.892482 -0.000000
v 0.133953 1.111351 -0.000000
v 0.052413 0.000708 -0.000000
v 0.012855 0.207894 -0.000000
v 0.712084 0.592332 -0.000000
v 0.463983 0.592332 -0.000000
v 0.383258 0.328655 -0.000000
v 0.558087 0.164528 -0.000000
v 0.456579 0.431275 -0.000000
v 0.706295 0.389545 -0.000000
v 0.341740 0.060046 -0.000000
v 0.254622 0.262454 -0.000000
v -0.713846 0.592332 -0.000000
v -0.438274 0.592332 -0.000000
v -0.354115 0.313202 -0.000000
v -0.532378 0.164528 -0.000000
v -0.430870 0.431275 -0.000000
v -0.680586 0.389545 -0.000000
v -0.276472 0.005653 -0.000000
v -0.208145 0.217950 -0.000000
v -0.486609 0.917974 -0.000000
v -0.273956 0.751681 -0.000000
v -0.380779 0.685422 -0.000000
v -0.643655 0.788292 -0.000000
v -0.204121 1.024241 -0.000000
v -0.137360 0.805372 -0.000000
v 0.018344 1.856228 0.274000
v 0.018344 1.646030 0.274000
v -0.629851 1.312029 0.274000
v -0.384049 1.312029 0.274000
v -0.308982 1.591159 0.273991
v -0.467987 1.739833 0.274000
v -0.377445 1.473087 0.274000
v -0.600184 1.514817 0.274000
v -0.239727 1.841279 0.274000
v -0.197306 1.641907 0.273991
v 0.666539 1.312029 0.274000
v 0.420737 1.312029 0.274000
v 0.345670 1.591159 0.273991
v 0.504675 1.739833 0.274000
v 0.414133 1.473087 0.274000
v 0.636872 1.514817 0.274000
v 0.276415 1.841279 0.274000
v 0.233994 1.641907 0.273991
v 0.009266 0.842647 0.274000
v -0.058725 1.065785 0.273992
v 0.463850 0.986387 0.274000
v 0.274171 1.152680 0.274000
v 0.369453 1.218939 0.274000
v 0.603931 1.116069 0.274000
v 0.193502 0.892482 0.274000
v 0.133953 1.111351 0.274000
v 0.052413 0.000708 0.274000
v 0.012855 0.207894 0.273991
v 0.712084 0.592332 0.274000
v 0.463983 0.592332 0.274000
v 0.383258 0.328655 0.273991
v 0.558087 0.164528 0.274000
v 0.456579 0.431275 0.274000
v 0.706295 0.389545 0.274000
v 0.341740 0.060046 0.273991
v 0.254622 0.262454 0.274000
v -0.713846 0.592332 0.274000
v -0.438274 0.592332 0.274000
v -0.354115 0.313202 0.274000
v -0.532378 0.164528 0.273991
v -0.430870 0.431275 0.274000
v -0.680586 0.389545 0.273991
v -0.276472 0.005653 0.273991
v -0.208145 0.217950 0.274000
v -0.486609 0.917974 0.274000
v -0.273956 0.751681 0.274000
v -0.380779 0.685422 0.274000
v -0.643655 0.788292 0.274000
v -0.204121 1.024241 0.274000
v -0.137360 0.805372 0.273991
vn 0.0000 0.0000 -1.0000
vn -0.0000 0.0000 1.0000
vn 0.0000 -1.0000 0.0000
vn 0.0000 1.0000 0.0000
vn 0.5643 -0.5879 -0.5795
vn 0.6180 -0.1799 -0.7653
vn 0.6180 -0.1798 0.7653
vn 0.5643 -0.5879 0.5795
vn 0.0000 0.7197 -0.6943
vn -0.1753 0.7224 -0.6689
vn -0.1753 0.7224 0.6689
vn 0.0000 0.7197 0.6943
vn 0.4180 -0.4615 -0.7825
vn 0.1447 -0.6388 -0.7556
vn 0.1447 -0.6388 0.7556
vn 0.4180 -0.4615 0.7825
vn -0.5094 0.5704 -0.6443
vn -0.7034 0.2474 -0.6664
vn -0.7034 0.2474 0.6664
vn -0.5094 0.5704 0.6443
vn -0.6216 -0.5372 -0.5701
vn -0.6216 -0.5372 0.5701
vn 0.0000 -0.7027 -0.7114
vn 0.0000 -0.7027 0.7114
vn -0.6180 -0.1799 -0.7653
vn -0.6176 0.1454 -0.7729
vn -0.6176 0.1454 0.7729
vn -0.6180 -0.1798 0.7653
vn -0.1447 -0.6388 -0.7556
vn -0.4180 -0.4615 -0.7825
vn -0.4180 -0.4615 0.7825
vn -0.1447 -0.6388 0.7556
vn 0.7034 0.2474 -0.6664
vn 0.5094 0.5704 -0.6443
vn 0.5094 0.5704 0.6443
vn 0.7034 0.2474 0.6664
vn 0.7490 -0.0615 -0.6597
vn 0.7490 -0.0615 0.6597
vn 0.1753 0.7224 -0.6689
vn 0.1753 0.7224 0.6689
vn 0.1798 -0.6856 -0.7054
vn 0.2107 -0.6830 -0.6993
vn 0.2107 -0.6830 0.6993
vn 0.1798 -0.6856 0.7054
vn -0.4810 0.4333 -0.7621
vn -0.4810 0.4333 0.7621
vn 0.3849 -0.6413 -0.6638
vn 0.6382 -0.4060 -0.6540
vn 0.6382 -0.4060 0.6540
vn 0.3849 -0.6413 0.6638
vn -0.2885 0.6016 -0.7449
vn -0.1798 0.6774 -0.7133
vn -0.1798 0.6774 0.7133
vn -0.2885 0.6016 0.7449
vn -0.1798 0.6891 -0.7020
vn -0.1798 0.6891 0.7019
vn -0.5627 0.5892 -0.5798
vn -0.5951 0.2059 -0.7768
vn -0.5951 0.2059 0.7768
vn -0.5627 0.5892 0.5798
vn 0.0682 -0.7267 -0.6835
vn 0.2348 -0.6943 -0.6803
vn 0.2348 -0.6943 0.6803
vn 0.0682 -0.7267 0.6835
vn -0.4219 0.4880 -0.7641
vn -0.2310 0.6355 -0.7367
vn -0.2310 0.6355 0.7367
vn -0.4219 0.4880 0.7641
vn 0.4995 -0.5705 -0.6518
vn 0.7244 -0.2284 -0.6504
vn 0.7244 -0.2284 0.6504
vn 0.4995 -0.5705 0.6518
vn 0.5863 0.5698 -0.5759
vn 0.5863 0.5698 0.5759
vn -0.0594 0.6717 -0.7384
vn -0.0594 0.6717 0.7384
vn 0.6061 0.1949 -0.7711
vn 0.6058 -0.1570 -0.7799
vn 0.6058 -0.1570 0.7799
vn 0.6061 0.1949 0.7711
vn 0.1952 0.6056 -0.7714
vn 0.4627 0.4619 -0.7567
vn 0.4627 0.4618 0.7567
vn 0.1952 0.6056 0.7714
vn -0.6972 -0.2724 -0.6630
vn -0.5229 -0.5371 -0.6618
vn -0.5229 -0.5372 0.6618
vn -0.6972 -0.2724 0.6630
vn -0.7527 0.0684 -0.6548
vn -0.7527 0.0684 0.6548
vn -0.2135 -0.7278 -0.6516
vn -0.2135 -0.7278 0.6516
vn -0.2246 0.6799 -0.6980
vn -0.2246 0.6799 0.6980
vn 0.4579 -0.4570 -0.7625
vn 0.4579 -0.4570 0.7625
vn -0.3712 0.6409 -0.6719
vn -0.6205 0.4357 -0.6520
vn -0.6205 0.4357 0.6520
vn -0.3712 0.6409 0.6719
vn 0.3073 -0.6128 -0.7280
vn 0.2123 -0.6590 -0.7215
vn 0.2123 -0.6590 0.7215
vn 0.3073 -0.6128 0.7280
usemtl Material
s off
f 8//1 7//1 4//1 3//1
f 9//1 10//1 5//1 6//1
f 6//1 5//1 7//1 8//1
f 1//1 2//1 10//1 9//1
f 16//1 11//1 12//1 15//1
f 17//1 14//1 13//1 18//1
f 14//1 16//1 15//1 13//1
f 1//1 17//1 18//1 2//1
f 26//1 25//1 19//1 20//1
f 23//1 24//1 21//1 22//1
f 12//1 11//1 24//1 23//1
f 22//1 21//1 25//1 26//1
f 34//1 33//1 30//1 29//1
f 35//1 36//1 31//1 32//1
f 32//1 31//1 33//1 34//1
f 27//1 28//1 36//1 35//1
f 42//1 37//1 38//1 41//1
f 43//1 40//1 39//1 44//1
f 40//1 42//1 41//1 39//1
f 27//1 43//1 44//1 28//1
f 19//1 50//1 49//1 20//1
f 47//1 48//1 45//1 46//1
f 38//1 37//1 48//1 47//1
f 46//1 45//1 49//1 50//1
f 53//2 54//2 57//2 58//2
f 56//2 55//2 60//2 59//2
f 58//2 57//2 55//2 56//2
f 59//2 60//2 52//2 51//2
f 65//2 62//2 61//2 66//2
f 68//2 63//2 64//2 67//2
f 63//2 65//2 66//2 64//2
f 52//2 68//2 67//2 51//2
f 70//2 69//2 75//2 76//2
f 72//2 71//2 74//2 73//2
f 73//2 74//2 61//2 62//2
f 76//2 75//2 71//2 72//2
f 79//2 80//2 83//2 84//2
f 82//2 81//2 86//2 85//2
f 84//2 83//2 81//2 82//2
f 85//2 86//2 78//2 77//2
f 91//2 88//2 87//2 92//2
f 94//2 89//2 90//2 93//2
f 89//2 91//2 92//2 90//2
f 78//2 94//2 93//2 77//2
f 70//2 99//2 100//2 69//2
f 96//2 95//2 98//2 97//2
f 97//2 98//2 87//2 88//2
f 100//2 99//2 95//2 96//2
f 3//3 4//3 54//3 53//3
f 29//4 30//4 80//4 79//4
s 1
f 4//5 7//6 57//7 54//8
f 1//9 9//10 59//11 51//12
f 5//13 10//14 60//15 55//16
f 6//17 8//18 58//19 56//20
f 7//6 5//13 55//16 57//7
f 8//18 3//21 53//22 58//19
f 9//10 6//17 56//20 59//11
f 10//14 2//23 52//24 60//15
f 15//25 12//26 62//27 65//28
f 18//29 13//30 63//31 68//32
f 16//33 14//34 64//35 66//36
f 13//30 15//25 65//28 63//31
f 11//37 16//33 66//36 61//38
f 14//34 17//39 67//40 64//35
f 17//39 1//9 51//12 67//40
f 2//23 18//29 68//32 52//24
f 19//41 25//42 75//43 69//44
f 12//26 23//45 73//46 62//27
f 21//47 24//48 74//49 71//50
f 22//51 26//52 76//53 72//54
f 23//45 22//51 72//54 73//46
f 24//48 11//37 61//38 74//49
f 25//42 21//47 71//50 75//43
f 26//52 20//55 70//56 76//53
f 30//57 33//58 83//59 80//60
f 27//61 35//62 85//63 77//64
f 31//65 36//66 86//67 81//68
f 32//69 34//70 84//71 82//72
f 33//58 31//65 81//68 83//59
f 34//70 29//73 79//74 84//71
f 35//62 32//69 82//72 85//63
f 36//66 28//75 78//76 86//67
f 41//77 38//78 88//79 91//80
f 44//81 39//82 89//83 94//84
f 42//85 40//86 90//87 92//88
f 39//82 41//77 91//80 89//83
f 37//89 42//85 92//88 87//90
f 40//86 43//91 93//92 90//87
f 43//91 27//61 77//64 93//92
f 28//75 44//81 94//84 78//76
f 20//55 49//93 99//94 70//56
f 38//78 47//95 97//96 88//79
f 45//97 48//98 98//99 95//100
f 46//101 50//102 100//103 96//104
f 47//95 46//101 96//104 97//96
f 48//98 37//89 87//90 98//99
f 49//93 45//97 95//100 99//94
f 50//102 19//41 69//44 100//103
