# Blender v2.77 (sub 0) OBJ File: 'text.blend'
# www.blender.org
mtllib meshO.mtl
o Mesh_O_Cube.015
v 0.832845 0.915140 0.000000
v 0.598898 0.915140 0.000000
v 0.832845 1.142544 0.000000
v 0.598898 1.142544 0.000000
v 0.772753 1.397223 0.000000
v 0.563129 1.307084 0.000000
v 0.692629 1.551748 0.000000
v 0.491647 1.442379 0.000000
v 0.522366 1.719149 0.000000
v 0.349942 1.557471 0.000000
v 0.290613 1.822608 0.000000
v 0.186112 1.610596 0.000000
v 0.024089 1.858140 0.000000
v 0.024089 1.645114 0.000000
v -0.598898 0.717235 0.000000
v -0.832845 0.717235 0.000000
v -0.024089 1.645114 0.000000
v -0.024089 1.858140 0.000000
v -0.186112 1.610596 0.000000
v -0.290613 1.822608 0.000000
v -0.349942 1.557471 0.000000
v -0.522365 1.719149 0.000000
v 0.832845 0.717235 0.000000
v 0.598898 0.717235 0.000000
v 0.772753 0.462556 0.000000
v 0.563129 0.552695 0.000000
v 0.692629 0.308031 0.000000
v 0.491647 0.417400 0.000000
v 0.522366 0.140630 0.000000
v 0.349942 0.302308 0.000000
v 0.290613 0.037171 0.000000
v 0.186112 0.249183 0.000000
v 0.024089 0.001638 0.000000
v 0.024089 0.214664 0.000000
v -0.491647 1.442379 0.000000
v -0.692628 1.551748 0.000000
v -0.563128 1.307084 0.000000
v -0.772752 1.397223 0.000000
v -0.598898 1.142544 0.000000
v -0.832845 1.142544 0.000000
v -0.598898 0.915140 0.000000
v -0.832845 0.915140 0.000000
v -0.772752 0.462556 0.000000
v -0.563128 0.552695 0.000000
v -0.692628 0.308031 0.000000
v -0.491647 0.417400 0.000000
v -0.522365 0.140630 0.000000
v -0.349942 0.302308 0.000000
v -0.290613 0.037171 0.000000
v -0.186112 0.249183 0.000000
v -0.024089 0.001638 0.000000
v -0.024089 0.214664 0.000000
v 0.832845 0.915140 0.274000
v 0.598898 0.915140 0.274000
v 0.832845 1.142544 0.274000
v 0.598898 1.142544 0.274000
v 0.772753 1.397223 0.274000
v 0.563129 1.307084 0.274000
v 0.692629 1.551748 0.274000
v 0.491647 1.442379 0.273992
v 0.522366 1.719149 0.274000
v 0.349942 1.557471 0.274000
v 0.290613 1.822608 0.274000
v 0.186112 1.610596 0.273992
v 0.024089 1.858140 0.274000
v 0.024089 1.645114 0.274000
v -0.598898 0.717235 0.274000
v -0.832845 0.717235 0.274000
v -0.024089 1.645114 0.274000
v -0.024089 1.858140 0.274000
v -0.186112 1.610596 0.273992
v -0.290613 1.822608 0.274000
v -0.349942 1.557471 0.274000
v -0.522365 1.719149 0.274000
v 0.832845 0.717235 0.274000
v 0.598898 0.717235 0.274000
v 0.772753 0.462556 0.274000
v 0.563129 0.552695 0.274000
v 0.692629 0.308031 0.274000
v 0.491647 0.417400 0.273992
v 0.522366 0.140630 0.274000
v 0.349942 0.302308 0.274000
v 0.290613 0.037171 0.274000
v 0.186112 0.249183 0.273992
v 0.024089 0.001638 0.274000
v 0.024089 0.214664 0.274000
v -0.491647 1.442379 0.273992
v -0.692628 1.551748 0.274000
v -0.563128 1.307084 0.274000
v -0.772752 1.397223 0.274000
v -0.598898 1.142544 0.274000
v -0.832845 1.142544 0.274000
v -0.598898 0.915140 0.274000
v -0.832845 0.915140 0.274000
v -0.772752 0.462556 0.274000
v -0.563128 0.552695 0.274000
v -0.692628 0.308031 0.274000
v -0.491647 0.417400 0.273992
v -0.522365 0.140630 0.274000
v -0.349942 0.302308 0.274000
v -0.290613 0.037171 0.274000
v -0.186112 0.249183 0.273992
v -0.024089 0.001638 0.274000
v -0.024089 0.214664 0.274000
vn 0.0000 0.0000 -1.0000
vn 0.0000 0.0000 1.0000
vn -0.6774 -0.0728 -0.7320
vn -0.7071 0.0000 -0.7071
vn -0.7071 0.0000 0.7071
vn -0.6774 -0.0728 0.7320
vn 0.7071 0.0000 -0.7071
vn 0.7264 0.0845 -0.6820
vn 0.7264 0.0845 0.6820
vn 0.7071 0.0000 0.7071
vn -0.6329 -0.2311 -0.7389
vn -0.6329 -0.2311 0.7389
vn 0.6871 0.2547 -0.6804
vn 0.6871 0.2547 0.6804
vn -0.5068 -0.4160 -0.7550
vn -0.5068 -0.4161 0.7550
vn 0.5947 0.4392 -0.6734
vn 0.5947 0.4392 0.6734
vn -0.3154 -0.5804 -0.7508
vn -0.3154 -0.5804 0.7508
vn 0.4186 0.6139 -0.6692
vn 0.4186 0.6139 0.6692
vn -0.1798 -0.6714 -0.7190
vn -0.1798 -0.6714 0.7189
vn 0.2009 0.7087 -0.6762
vn 0.2009 0.7087 0.6763
vn -0.0714 -0.6781 -0.7314
vn -0.0714 -0.6781 0.7314
vn 0.0478 0.7198 -0.6925
vn 0.0478 0.7198 0.6925
vn -0.7264 -0.0845 -0.6820
vn -0.6871 -0.2547 -0.6804
vn -0.6871 -0.2547 0.6804
vn -0.7264 -0.0845 0.6820
vn 0.6774 0.0728 -0.7320
vn 0.6774 0.0728 0.7320
vn 0.6329 0.2311 -0.7389
vn 0.6329 0.2311 0.7389
vn -0.0478 0.7198 -0.6925
vn -0.2009 0.7087 -0.6762
vn -0.2009 0.7087 0.6763
vn -0.0478 0.7198 0.6925
vn -0.4186 0.6139 -0.6692
vn -0.4186 0.6139 0.6692
vn 0.1798 -0.6714 -0.7190
vn 0.0714 -0.6781 -0.7314
vn 0.0714 -0.6781 0.7314
vn 0.1798 -0.6714 0.7189
vn -0.5947 0.4392 -0.6734
vn -0.5947 0.4392 0.6734
vn 0.3154 -0.5804 -0.7508
vn 0.3154 -0.5804 0.7508
vn -0.6774 0.0728 -0.7320
vn -0.6774 0.0728 0.7320
vn -0.6329 0.2311 -0.7389
vn -0.6329 0.2311 0.7389
vn 0.6871 -0.2547 -0.6804
vn 0.7264 -0.0845 -0.6820
vn 0.7264 -0.0845 0.6820
vn 0.6871 -0.2547 0.6804
vn -0.5068 0.4160 -0.7550
vn -0.5068 0.4161 0.7550
vn 0.5947 -0.4392 -0.6734
vn 0.5947 -0.4392 0.6734
vn -0.3154 0.5804 -0.7508
vn -0.3154 0.5804 0.7508
vn 0.4186 -0.6139 -0.6692
vn 0.4186 -0.6139 0.6692
vn -0.1798 0.6714 -0.7190
vn -0.1798 0.6714 0.7189
vn 0.2009 -0.7087 -0.6762
vn 0.2009 -0.7087 0.6763
vn -0.0714 0.6781 -0.7314
vn -0.0714 0.6781 0.7314
vn 0.0478 -0.7198 -0.6925
vn 0.0478 -0.7198 0.6925
vn 0.5068 -0.4160 -0.7550
vn 0.5068 -0.4161 0.7550
vn 0.6329 -0.2311 -0.7389
vn 0.6329 -0.2311 0.7389
vn -0.6871 0.2547 -0.6804
vn -0.7264 0.0845 -0.6820
vn -0.7264 0.0845 0.6820
vn -0.6871 0.2547 0.6804
vn 0.6774 -0.0728 -0.7320
vn 0.6774 -0.0728 0.7320
vn 0.5068 0.4160 -0.7550
vn 0.5068 0.4161 0.7550
vn -0.5947 -0.4392 -0.6734
vn -0.5947 -0.4392 0.6734
vn 0.3154 0.5804 -0.7508
vn 0.3154 0.5804 0.7508
vn -0.4186 -0.6139 -0.6692
vn -0.4186 -0.6139 0.6692
vn 0.1798 0.6714 -0.7190
vn 0.1798 0.6714 0.7189
vn -0.2009 -0.7087 -0.6762
vn -0.2009 -0.7087 0.6763
vn 0.0714 0.6781 -0.7314
vn 0.0714 0.6781 0.7314
vn -0.0478 -0.7198 -0.6925
vn -0.0478 -0.7198 0.6925
usemtl Material
s off
f 1//1 2//1 4//1 3//1
f 3//1 4//1 6//1 5//1
f 5//1 6//1 8//1 7//1
f 7//1 8//1 10//1 9//1
f 9//1 10//1 12//1 11//1
f 11//1 12//1 14//1 13//1
f 42//1 41//1 15//1 16//1
f 16//1 15//1 44//1 43//1
f 20//1 18//1 17//1 19//1
f 22//1 20//1 19//1 21//1
f 1//1 23//1 24//1 2//1
f 23//1 25//1 26//1 24//1
f 25//1 27//1 28//1 26//1
f 27//1 29//1 30//1 28//1
f 29//1 31//1 32//1 30//1
f 31//1 33//1 34//1 32//1
f 38//1 36//1 35//1 37//1
f 36//1 22//1 21//1 35//1
f 40//1 38//1 37//1 39//1
f 42//1 40//1 39//1 41//1
f 43//1 44//1 46//1 45//1
f 45//1 46//1 48//1 47//1
f 47//1 48//1 50//1 49//1
f 49//1 50//1 52//1 51//1
f 14//1 17//1 18//1 13//1
f 34//1 33//1 51//1 52//1
f 55//2 56//2 54//2 53//2
f 57//2 58//2 56//2 55//2
f 59//2 60//2 58//2 57//2
f 61//2 62//2 60//2 59//2
f 63//2 64//2 62//2 61//2
f 65//2 66//2 64//2 63//2
f 68//2 67//2 93//2 94//2
f 95//2 96//2 67//2 68//2
f 71//2 69//2 70//2 72//2
f 73//2 71//2 72//2 74//2
f 54//2 76//2 75//2 53//2
f 76//2 78//2 77//2 75//2
f 78//2 80//2 79//2 77//2
f 80//2 82//2 81//2 79//2
f 82//2 84//2 83//2 81//2
f 84//2 86//2 85//2 83//2
f 89//2 87//2 88//2 90//2
f 87//2 73//2 74//2 88//2
f 91//2 89//2 90//2 92//2
f 93//2 91//2 92//2 94//2
f 97//2 98//2 96//2 95//2
f 99//2 100//2 98//2 97//2
f 101//2 102//2 100//2 99//2
f 103//2 104//2 102//2 101//2
f 65//2 70//2 69//2 66//2
f 104//2 103//2 85//2 86//2
s 1
f 4//3 2//4 54//5 56//6
f 1//7 3//8 55//9 53//10
f 6//11 4//3 56//6 58//12
f 3//8 5//13 57//14 55//9
f 8//15 6//11 58//12 60//16
f 5//13 7//17 59//18 57//14
f 10//19 8//15 60//16 62//20
f 7//17 9//21 61//22 59//18
f 12//23 10//19 62//20 64//24
f 9//21 11//25 63//26 61//22
f 14//27 12//23 64//24 66//28
f 11//25 13//29 65//30 63//26
f 16//31 43//32 95//33 68//34
f 15//35 41//7 93//10 67//36
f 44//37 15//35 67//36 96//38
f 18//39 20//40 72//41 70//42
f 20//40 22//43 74//44 72//41
f 19//45 17//46 69//47 71//48
f 22//43 36//49 88//50 74//44
f 21//51 19//45 71//48 73//52
f 2//4 24//53 76//54 54//5
f 24//53 26//55 78//56 76//54
f 25//57 23//58 75//59 77//60
f 26//55 28//61 80//62 78//56
f 27//63 25//57 77//60 79//64
f 28//61 30//65 82//66 80//62
f 29//67 27//63 79//64 81//68
f 30//65 32//69 84//70 82//66
f 31//71 29//67 81//68 83//72
f 32//69 34//73 86//74 84//70
f 33//75 31//71 83//72 85//76
f 35//77 21//51 73//52 87//78
f 37//79 35//77 87//78 89//80
f 38//81 40//82 92//83 90//84
f 36//49 38//81 90//84 88//50
f 40//82 42//4 94//5 92//83
f 39//85 37//79 89//80 91//86
f 41//7 39//85 91//86 93//10
f 23//58 1//7 53//10 75//59
f 46//87 44//37 96//38 98//88
f 43//32 45//89 97//90 95//33
f 48//91 46//87 98//88 100//92
f 45//89 47//93 99//94 97//90
f 50//95 48//91 100//92 102//96
f 47//93 49//97 101//98 99//94
f 52//99 50//95 102//96 104//100
f 49//97 51//101 103//102 101//98
f 42//4 16//31 68//34 94//5
f 13//29 18//39 70//42 65//30
f 17//46 14//27 66//28 69//47
f 51//101 33//75 85//76 103//102
f 34//73 52//99 104//100 86//74
