# Blender v2.77 (sub 0) OBJ File: 'text.blend'
# www.blender.org
mtllib meshD.mtl
o Mesh_D_Cube.004
v -0.249698 1.472310 0.000000
v 0.827072 -0.001751 0.000000
v -0.439388 1.635856 0.000000
v 0.567471 -0.001751 0.000000
v -0.039501 1.611089 0.000000
v -0.039501 1.815683 0.000000
v 0.827072 0.202844 0.000000
v 0.567471 0.202844 0.000000
v -0.039501 -0.001751 0.000000
v -0.039501 0.202844 0.000000
v 0.567471 1.611089 0.000000
v 0.827072 1.611089 0.000000
v -0.439388 0.178077 0.000000
v -0.249698 0.341622 0.000000
v 0.567471 1.815683 0.000000
v 0.827072 1.815683 0.000000
v -0.585857 0.402618 0.000000
v -0.345523 0.473105 0.000000
v -0.669950 0.746911 0.000000
v -0.419663 0.746911 0.000000
v -0.585857 1.411314 0.000000
v -0.345523 1.340827 0.000000
v -0.669950 1.067022 0.000000
v -0.419663 1.067022 0.000000
v -0.249698 1.472310 0.273992
v 0.827072 -0.001751 0.274000
v -0.439388 1.635856 0.274000
v 0.567471 -0.001751 0.274000
v -0.039501 1.611089 0.274000
v -0.039501 1.815683 0.274000
v 0.827072 0.202844 0.274000
v 0.567471 0.202844 0.274000
v -0.039501 -0.001751 0.274000
v -0.039501 0.202844 0.274000
v 0.567471 1.611089 0.274000
v 0.827072 1.611089 0.274000
v -0.439388 0.178077 0.274000
v -0.249698 0.341622 0.273992
v 0.567471 1.815683 0.274000
v 0.827072 1.815683 0.274000
v -0.585857 0.402618 0.274000
v -0.345523 0.473105 0.273992
v -0.669950 0.746911 0.274000
v -0.419663 0.746911 0.274000
v -0.585857 1.411314 0.274000
v -0.345523 1.340827 0.274000
v -0.669950 1.067022 0.274000
v -0.419663 1.067022 0.274000
vn 0.0000 0.0000 -1.0000
vn 0.0000 0.0000 1.0000
vn 0.5773 -0.5773 -0.5773
vn 0.7071 0.0000 -0.7071
vn 0.7071 0.0000 0.7071
vn 0.5773 -0.5773 0.5773
vn 0.0000 -0.7071 -0.7071
vn 0.0000 -0.7071 0.7071
vn -0.4946 0.5781 -0.6489
vn -0.6803 0.2947 -0.6711
vn -0.6803 0.2947 0.6711
vn -0.4946 0.5781 0.6489
vn 0.4572 -0.4789 -0.7494
vn 0.1807 -0.6018 -0.7779
vn 0.1807 -0.6018 0.7779
vn 0.4572 -0.4789 0.7494
vn -0.3015 -0.3015 -0.9045
vn -0.3015 -0.3015 0.9045
vn 0.0000 0.7071 -0.7071
vn -0.1570 0.7321 -0.6628
vn -0.1570 0.7321 0.6628
vn 0.0000 0.7071 0.7071
vn -0.1570 -0.7321 -0.6628
vn -0.1570 -0.7321 0.6628
vn -0.3015 0.3015 -0.9045
vn 0.1807 0.6018 -0.7779
vn 0.1807 0.6018 0.7779
vn -0.3015 0.3015 0.9045
vn 0.5773 0.5773 -0.5773
vn 0.5773 0.5773 0.5773
vn -0.4946 -0.5781 -0.6489
vn -0.4946 -0.5781 0.6489
vn 0.4572 0.4789 -0.7494
vn 0.4572 0.4789 0.7494
vn -0.6803 -0.2947 -0.6711
vn -0.6803 -0.2947 0.6711
vn 0.5960 0.2858 -0.7504
vn 0.5960 0.2858 0.7504
vn -0.7269 -0.0875 -0.6812
vn -0.7269 -0.0875 0.6812
vn 0.6689 0.0889 -0.7380
vn 0.6689 0.0889 0.7380
vn 0.5960 -0.2858 -0.7504
vn 0.5960 -0.2858 0.7504
vn -0.7269 0.0875 -0.6812
vn -0.7269 0.0875 0.6812
vn 0.6689 -0.0889 -0.7380
vn 0.6689 -0.0889 0.7380
usemtl Material
s off
f 7//1 2//1 4//1 8//1
f 1//1 22//1 21//1 3//1
f 11//1 5//1 6//1 15//1
f 8//1 4//1 9//1 10//1
f 5//1 1//1 3//1 6//1
f 12//1 11//1 15//1 16//1
f 10//1 9//1 13//1 14//1
f 14//1 13//1 17//1 18//1
f 18//1 17//1 19//1 20//1
f 22//1 24//1 23//1 21//1
f 19//1 23//1 24//1 20//1
f 8//1 11//1 12//1 7//1
f 32//2 28//2 26//2 31//2
f 27//2 45//2 46//2 25//2
f 39//2 30//2 29//2 35//2
f 34//2 33//2 28//2 32//2
f 30//2 27//2 25//2 29//2
f 40//2 39//2 35//2 36//2
f 38//2 37//2 33//2 34//2
f 42//2 41//2 37//2 38//2
f 44//2 43//2 41//2 42//2
f 45//2 47//2 48//2 46//2
f 44//2 48//2 47//2 43//2
f 31//2 36//2 35//2 32//2
s 1
f 2//3 7//4 31//5 26//6
f 4//7 2//3 26//6 28//8
f 3//9 21//10 45//11 27//12
f 1//13 5//14 29//15 25//16
f 5//14 11//17 35//18 29//15
f 15//19 6//20 30//21 39//22
f 9//23 4//7 28//8 33//24
f 8//25 10//26 34//27 32//28
f 6//20 3//9 27//12 30//21
f 12//4 16//29 40//30 36//5
f 16//29 15//19 39//22 40//30
f 13//31 9//23 33//24 37//32
f 10//26 14//33 38//34 34//27
f 17//35 13//31 37//32 41//36
f 14//33 18//37 42//38 38//34
f 19//39 17//35 41//36 43//40
f 18//37 20//41 44//42 42//38
f 22//43 1//13 25//16 46//44
f 21//10 23//45 47//46 45//11
f 24//47 22//43 46//44 48//48
f 20//41 24//47 48//48 44//42
f 23//45 19//39 43//40 47//46
f 7//4 12//4 36//5 31//5
f 11//17 8//25 32//28 35//18
