# Blender v2.77 (sub 0) OBJ File: 'text.blend'
# www.blender.org
mtllib meshE.mtl
o Mesh_E_Cube.005
v 0.523350 1.820122 0.000000
v 0.523350 0.002688 0.000000
v 0.289570 1.820122 0.000000
v 0.289570 0.002688 0.000000
v 0.523350 1.628439 0.000000
v 0.289570 1.628439 0.000000
v 0.523350 0.212119 0.000000
v 0.289570 0.212119 0.000000
v 0.523350 1.048388 0.000000
v 0.289570 1.048388 0.000000
v 0.523350 0.832234 0.000000
v 0.289570 0.832234 0.000000
v -0.849710 1.820122 0.000000
v -0.849710 0.002688 0.000000
v -0.849710 1.628439 0.000000
v -0.849710 0.212119 0.000000
v -0.739342 1.048388 0.000000
v -0.739342 0.832234 0.000000
v 0.523350 1.820122 0.274000
v 0.523350 0.002688 0.274000
v 0.289570 1.820122 0.274000
v 0.289570 0.002688 0.274000
v 0.523350 1.628439 0.274000
v 0.289570 1.628439 0.274000
v 0.523350 0.212119 0.274000
v 0.289570 0.212119 0.274000
v 0.523350 1.048388 0.274000
v 0.289570 1.048388 0.274000
v 0.523350 0.832234 0.274000
v 0.289570 0.832234 0.274000
v -0.849710 1.820122 0.274000
v -0.849710 0.002688 0.274000
v -0.849710 1.628439 0.274000
v -0.849710 0.212119 0.274000
v -0.739342 1.048388 0.274000
v -0.739342 0.832234 0.274000
vn 0.0000 0.0000 -1.0000
vn 0.0000 0.0000 1.0000
vn 1.0000 0.0000 0.0000
vn 0.0000 -1.0000 0.0000
vn 0.0000 1.0000 0.0000
vn -1.0000 0.0000 0.0000
usemtl Material
s off
f 7//1 2//1 4//1 8//1
f 1//1 5//1 6//1 3//1
f 11//1 7//1 8//1 12//1
f 5//1 9//1 10//1 6//1
f 9//1 11//1 12//1 10//1
f 10//1 12//1 18//1 17//1
f 3//1 6//1 15//1 13//1
f 8//1 4//1 14//1 16//1
f 26//2 22//2 20//2 25//2
f 21//2 24//2 23//2 19//2
f 30//2 26//2 25//2 29//2
f 24//2 28//2 27//2 23//2
f 28//2 30//2 29//2 27//2
f 35//2 36//2 30//2 28//2
f 31//2 33//2 24//2 21//2
f 34//2 32//2 22//2 26//2
f 2//3 7//3 25//3 20//3
f 4//4 2//4 20//4 22//4
f 1//5 3//5 21//5 19//5
f 5//3 1//3 19//3 23//3
f 7//3 11//3 29//3 25//3
f 12//6 8//6 26//6 30//6
f 9//3 5//3 23//3 27//3
f 6//6 10//6 28//6 24//6
f 11//3 9//3 27//3 29//3
f 16//6 14//6 32//6 34//6
f 13//6 15//6 33//6 31//6
f 17//6 18//6 36//6 35//6
f 10//5 17//5 35//5 28//5
f 18//4 12//4 30//4 36//4
f 3//5 13//5 31//5 21//5
f 15//4 6//4 24//4 33//4
f 8//5 16//5 34//5 26//5
f 14//4 4//4 22//4 32//4
