# Blender v2.77 (sub 0) OBJ File: 'text.blend'
# www.blender.org
mtllib meshY.mtl
o Mesh_Y_Cube.025
v 0.137783 0.000232 0.000000
v 0.137783 0.810868 0.000000
v -0.137777 0.810868 0.000000
v -0.137777 0.000232 0.000000
v 0.000002 0.993827 0.000000
v 0.000002 0.000232 0.000000
v -0.844887 1.822084 -0.000000
v -0.549601 1.822084 -0.000000
v 0.844893 1.822084 -0.000000
v 0.549606 1.822084 -0.000000
v 0.137783 0.000232 0.274000
v 0.137783 0.810868 0.274000
v -0.137777 0.810868 0.274000
v -0.137777 0.000232 0.274000
v 0.000002 0.993827 0.274000
v 0.000002 0.000232 0.274000
v -0.844887 1.822084 0.274000
v -0.549601 1.822084 0.274000
v 0.844893 1.822084 0.274000
v 0.549606 1.822084 0.274000
vn 0.0000 0.0000 -1.0000
vn 0.0000 0.0000 1.0000
vn 0.0000 -1.0000 0.0000
vn 1.0000 0.0000 0.0000
vn -1.0000 0.0000 0.0000
vn 0.0000 1.0000 0.0000
vn 0.8332 0.5529 0.0000
vn -0.8195 -0.5731 0.0000
vn 0.8195 -0.5731 0.0000
vn -0.8332 0.5529 0.0000
usemtl Material
s off
f 2//1 1//1 6//1 5//1
f 3//1 5//1 6//1 4//1
f 5//1 3//1 7//1 8//1
f 5//1 10//1 9//1 2//1
f 15//2 16//2 11//2 12//2
f 14//2 16//2 15//2 13//2
f 18//2 17//2 13//2 15//2
f 12//2 19//2 20//2 15//2
f 4//3 6//3 16//3 14//3
f 1//4 2//4 12//4 11//4
f 3//5 4//5 14//5 13//5
f 8//6 7//6 17//6 18//6
f 5//7 8//7 18//7 15//7
f 7//8 3//8 13//8 17//8
f 9//6 10//6 20//6 19//6
f 6//3 1//3 11//3 16//3
f 2//9 9//9 19//9 12//9
f 10//10 5//10 15//10 20//10
