# Blender v2.77 (sub 0) OBJ File: 'text.blend'
# www.blender.org
mtllib meshC.mtl
o Mesh_C_Cube.003
v 0.705376 0.920409 0.000000
v 0.471429 0.920409 0.000000
v 0.705376 1.147813 0.000000
v 0.471429 1.147813 0.000000
v 0.645283 1.402492 0.000000
v 0.435660 1.312353 0.000000
v 0.565160 1.557017 0.000000
v 0.364178 1.447648 0.000000
v 0.394897 1.724418 0.000000
v 0.222473 1.562740 0.000000
v 0.163144 1.827877 0.000000
v 0.058643 1.615865 0.000000
v -0.103019 1.863410 0.000000
v -0.103741 1.650384 0.000000
v -0.333846 1.845641 0.000000
v -0.287040 1.635188 0.000000
v -0.575978 1.759099 0.000000
v -0.450791 1.569265 0.000000
v -0.789953 1.522020 0.000000
v -0.547925 1.456088 0.000000
v -0.822878 1.295384 0.000000
v -0.599474 1.295384 0.000000
v 0.705376 0.722504 0.000000
v 0.471429 0.722504 0.000000
v 0.645283 0.467825 0.000000
v 0.435660 0.557964 0.000000
v 0.565160 0.313300 0.000000
v 0.364178 0.422669 0.000000
v 0.394897 0.145899 0.000000
v 0.222473 0.307577 0.000000
v 0.163144 0.042440 0.000000
v 0.058643 0.254452 0.000000
v -0.103019 0.006907 0.000000
v -0.103741 0.219933 0.000000
v -0.333846 0.024676 0.000000
v -0.287040 0.235129 0.000000
v -0.575978 0.111217 0.000000
v -0.450791 0.301052 0.000000
v -0.789953 0.348297 0.000000
v -0.547925 0.414229 0.000000
v -0.822878 0.574933 0.000000
v -0.599474 0.574933 0.000000
v 0.705376 0.920409 0.274000
v 0.471429 0.920409 0.274000
v 0.705376 1.147813 0.274000
v 0.471429 1.147813 0.274000
v 0.645283 1.402492 0.274000
v 0.435660 1.312353 0.274000
v 0.565160 1.557017 0.274000
v 0.364178 1.447648 0.273992
v 0.394897 1.724418 0.274000
v 0.222473 1.562740 0.274000
v 0.163144 1.827877 0.274000
v 0.058643 1.615865 0.274000
v -0.103019 1.863410 0.274000
v -0.103741 1.650384 0.274000
v -0.333846 1.845641 0.274000
v -0.287040 1.635188 0.274000
v -0.575978 1.759099 0.274000
v -0.450791 1.569265 0.274000
v -0.789953 1.522020 0.274000
v -0.547925 1.456088 0.273992
v -0.822878 1.295384 0.274000
v -0.599474 1.295384 0.274000
v 0.705376 0.722504 0.274000
v 0.471429 0.722504 0.274000
v 0.645283 0.467825 0.274000
v 0.435660 0.557964 0.274000
v 0.565160 0.313300 0.274000
v 0.364178 0.422669 0.273992
v 0.394897 0.145899 0.274000
v 0.222473 0.307577 0.274000
v 0.163144 0.042440 0.274000
v 0.058643 0.254452 0.274000
v -0.103019 0.006907 0.274000
v -0.103741 0.219933 0.274000
v -0.333846 0.024676 0.274000
v -0.287040 0.235129 0.274000
v -0.575978 0.111217 0.274000
v -0.450791 0.301052 0.274000
v -0.789953 0.348297 0.274000
v -0.547925 0.414229 0.273992
v -0.822878 0.574933 0.274000
v -0.599474 0.574933 0.274000
vn 0.0000 0.0000 -1.0000
vn 0.0000 0.0000 1.0000
vn 0.0000 -1.0000 0.0000
vn 0.0000 1.0000 0.0000
vn -0.6774 -0.0728 -0.7320
vn -0.7071 0.0000 -0.7071
vn -0.7071 0.0000 0.7071
vn -0.6774 -0.0728 0.7320
vn 0.7071 0.0000 -0.7071
vn 0.7264 0.0845 -0.6820
vn 0.7264 0.0845 0.6820
vn 0.7071 0.0000 0.7071
vn -0.6329 -0.2311 -0.7389
vn -0.6329 -0.2311 0.7389
vn 0.6871 0.2547 -0.6804
vn 0.6871 0.2547 0.6804
vn -0.5068 -0.4160 -0.7550
vn -0.5068 -0.4161 0.7550
vn 0.5947 0.4392 -0.6734
vn 0.5947 0.4392 0.6734
vn -0.3154 -0.5804 -0.7508
vn -0.3154 -0.5804 0.7508
vn 0.4186 0.6139 -0.6692
vn 0.4186 0.6139 0.6692
vn -0.1797 -0.6713 -0.7190
vn -0.1797 -0.6713 0.7190
vn 0.2009 0.7087 -0.6763
vn 0.2009 0.7087 0.6763
vn -0.0425 -0.6697 -0.7414
vn -0.0425 -0.6697 0.7414
vn 0.0204 0.7289 -0.6843
vn 0.0204 0.7289 0.6843
vn 0.1545 -0.6519 -0.7423
vn 0.1545 -0.6519 0.7423
vn -0.1532 0.7185 -0.6784
vn -0.1532 0.7185 0.6784
vn 0.3756 -0.5238 -0.7645
vn 0.3756 -0.5238 0.7645
vn -0.4198 0.6271 -0.6561
vn -0.4198 0.6271 0.6561
vn 0.5728 -0.3203 -0.7545
vn 0.5728 -0.3203 0.7545
vn -0.6900 0.3242 -0.6471
vn -0.6900 0.3242 0.6471
vn 0.4734 -0.6491 -0.5954
vn 0.4734 -0.6490 0.5954
vn -0.6213 -0.5375 -0.5701
vn -0.6213 -0.5375 0.5701
vn -0.6774 0.0728 -0.7320
vn -0.6774 0.0728 0.7320
vn -0.6329 0.2311 -0.7389
vn -0.6329 0.2311 0.7389
vn 0.6871 -0.2547 -0.6804
vn 0.7264 -0.0845 -0.6820
vn 0.7264 -0.0845 0.6820
vn 0.6871 -0.2547 0.6804
vn -0.5068 0.4160 -0.7550
vn -0.5068 0.4161 0.7550
vn 0.5947 -0.4392 -0.6734
vn 0.5947 -0.4392 0.6734
vn -0.3154 0.5804 -0.7508
vn -0.3154 0.5804 0.7508
vn 0.4186 -0.6139 -0.6692
vn 0.4186 -0.6139 0.6692
vn -0.1797 0.6713 -0.7190
vn -0.1797 0.6713 0.7190
vn 0.2009 -0.7087 -0.6763
vn 0.2009 -0.7087 0.6763
vn -0.0425 0.6697 -0.7414
vn -0.0425 0.6697 0.7414
vn 0.0204 -0.7289 -0.6843
vn 0.0204 -0.7289 0.6843
vn 0.1545 0.6519 -0.7423
vn 0.1545 0.6519 0.7423
vn -0.1532 -0.7185 -0.6784
vn -0.1532 -0.7185 0.6784
vn 0.3756 0.5238 -0.7645
vn 0.3756 0.5238 0.7645
vn -0.4198 -0.6271 -0.6561
vn -0.4198 -0.6271 0.6561
vn 0.5728 0.3203 -0.7545
vn 0.5728 0.3203 0.7545
vn -0.6900 -0.3242 -0.6471
vn -0.6900 -0.3242 0.6471
vn 0.4734 0.6491 -0.5954
vn 0.4734 0.6490 0.5954
vn -0.6213 0.5375 -0.5701
vn -0.6213 0.5375 0.5701
usemtl Material
s off
f 1//1 2//1 4//1 3//1
f 3//1 4//1 6//1 5//1
f 5//1 6//1 8//1 7//1
f 7//1 8//1 10//1 9//1
f 9//1 10//1 12//1 11//1
f 11//1 12//1 14//1 13//1
f 13//1 14//1 16//1 15//1
f 15//1 16//1 18//1 17//1
f 17//1 18//1 20//1 19//1
f 19//1 20//1 22//1 21//1
f 1//1 23//1 24//1 2//1
f 23//1 25//1 26//1 24//1
f 25//1 27//1 28//1 26//1
f 27//1 29//1 30//1 28//1
f 29//1 31//1 32//1 30//1
f 31//1 33//1 34//1 32//1
f 33//1 35//1 36//1 34//1
f 35//1 37//1 38//1 36//1
f 37//1 39//1 40//1 38//1
f 39//1 41//1 42//1 40//1
f 45//2 46//2 44//2 43//2
f 47//2 48//2 46//2 45//2
f 49//2 50//2 48//2 47//2
f 51//2 52//2 50//2 49//2
f 53//2 54//2 52//2 51//2
f 55//2 56//2 54//2 53//2
f 57//2 58//2 56//2 55//2
f 59//2 60//2 58//2 57//2
f 61//2 62//2 60//2 59//2
f 63//2 64//2 62//2 61//2
f 44//2 66//2 65//2 43//2
f 66//2 68//2 67//2 65//2
f 68//2 70//2 69//2 67//2
f 70//2 72//2 71//2 69//2
f 72//2 74//2 73//2 71//2
f 74//2 76//2 75//2 73//2
f 76//2 78//2 77//2 75//2
f 78//2 80//2 79//2 77//2
f 80//2 82//2 81//2 79//2
f 82//2 84//2 83//2 81//2
f 21//3 22//3 64//3 63//3
f 42//4 41//4 83//4 84//4
s 1
f 4//5 2//6 44//7 46//8
f 1//9 3//10 45//11 43//12
f 6//13 4//5 46//8 48//14
f 3//10 5//15 47//16 45//11
f 8//17 6//13 48//14 50//18
f 5//15 7//19 49//20 47//16
f 10//21 8//17 50//18 52//22
f 7//19 9//23 51//24 49//20
f 12//25 10//21 52//22 54//26
f 9//23 11//27 53//28 51//24
f 14//29 12//25 54//26 56//30
f 11//27 13//31 55//32 53//28
f 16//33 14//29 56//30 58//34
f 13//31 15//35 57//36 55//32
f 18//37 16//33 58//34 60//38
f 15//35 17//39 59//40 57//36
f 20//41 18//37 60//38 62//42
f 17//39 19//43 61//44 59//40
f 22//45 20//41 62//42 64//46
f 19//43 21//47 63//48 61//44
f 2//6 24//49 66//50 44//7
f 24//49 26//51 68//52 66//50
f 25//53 23//54 65//55 67//56
f 26//51 28//57 70//58 68//52
f 27//59 25//53 67//56 69//60
f 28//57 30//61 72//62 70//58
f 29//63 27//59 69//60 71//64
f 30//61 32//65 74//66 72//62
f 31//67 29//63 71//64 73//68
f 32//65 34//69 76//70 74//66
f 33//71 31//67 73//68 75//72
f 34//69 36//73 78//74 76//70
f 35//75 33//71 75//72 77//76
f 36//73 38//77 80//78 78//74
f 37//79 35//75 77//76 79//80
f 38//77 40//81 82//82 80//78
f 39//83 37//79 79//80 81//84
f 40//81 42//85 84//86 82//82
f 41//87 39//83 81//84 83//88
f 23//54 1//9 43//12 65//55
