# Blender v2.77 (sub 0) OBJ File: 'text.blend'
# www.blender.org
mtllib meshG.mtl
o Mesh_G_Cube.007
v 0.767414 0.919745 0.000000
v 0.519226 0.919745 0.000000
v 0.767414 1.147149 0.000000
v 0.519226 1.147149 0.000000
v 0.693081 1.401828 0.000000
v 0.483457 1.311688 0.000000
v 0.612957 1.556352 0.000000
v 0.411975 1.446983 0.000000
v 0.442694 1.723753 0.000000
v 0.270270 1.562075 0.000000
v 0.210941 1.827213 0.000000
v 0.106441 1.615200 0.000000
v -0.055222 1.862745 0.000000
v -0.055943 1.649719 0.000000
v -0.286048 1.844976 0.000000
v -0.239243 1.634523 0.000000
v -0.528181 1.758435 0.000000
v -0.402994 1.568600 0.000000
v -0.742156 1.521356 0.000000
v -0.500128 1.455424 0.000000
v -0.775081 1.294719 0.000000
v -0.551677 1.294719 0.000000
v 0.756733 0.700478 0.000000
v 0.519226 0.721839 0.000000
v 0.693081 0.467160 0.000000
v 0.483457 0.557299 0.000000
v 0.612957 0.312636 0.000000
v 0.411975 0.422005 0.000000
v 0.442694 0.145234 0.000000
v 0.270270 0.306913 0.000000
v 0.210941 0.041775 0.000000
v 0.106441 0.253788 0.000000
v -0.055222 0.006243 0.000000
v -0.055943 0.219269 0.000000
v -0.286048 0.024012 0.000000
v -0.239243 0.234465 0.000000
v -0.582574 0.098191 0.000000
v -0.427718 0.288026 0.000000
v -0.845152 0.253681 0.000000
v -0.607491 0.369061 0.000000
v -0.845152 0.697889 0.000000
v -0.607491 0.697889 0.000000
v -0.845152 0.932766 0.000000
v -0.607491 0.932766 0.000000
v -0.085814 0.697889 0.000000
v -0.085814 0.932766 0.000000
v 0.767414 0.919745 0.274000
v 0.519226 0.919745 0.274000
v 0.767414 1.147149 0.273992
v 0.519226 1.147149 0.274000
v 0.693081 1.401828 0.274000
v 0.483457 1.311688 0.274000
v 0.612957 1.556352 0.274000
v 0.411975 1.446983 0.274000
v 0.442694 1.723753 0.274000
v 0.270270 1.562075 0.274000
v 0.210941 1.827213 0.274000
v 0.106441 1.615200 0.274000
v -0.055222 1.862745 0.274000
v -0.055943 1.649719 0.274000
v -0.286048 1.844976 0.274000
v -0.239243 1.634523 0.273992
v -0.528181 1.758435 0.274000
v -0.402994 1.568600 0.274000
v -0.742156 1.521356 0.274000
v -0.500128 1.455424 0.273992
v -0.775081 1.294719 0.274000
v -0.551677 1.294719 0.273992
v 0.756733 0.700478 0.273992
v 0.519226 0.721839 0.274000
v 0.693081 0.467160 0.274000
v 0.483457 0.557299 0.274000
v 0.612957 0.312636 0.274000
v 0.411975 0.422005 0.274000
v 0.442694 0.145234 0.274000
v 0.270270 0.306913 0.274000
v 0.210941 0.041775 0.274000
v 0.106441 0.253788 0.274000
v -0.055222 0.006243 0.274000
v -0.055943 0.219269 0.274000
v -0.286048 0.024012 0.274000
v -0.239243 0.234465 0.274000
v -0.582574 0.098191 0.274000
v -0.427718 0.288026 0.273992
v -0.845152 0.253681 0.274000
v -0.607491 0.369061 0.274000
v -0.845152 0.697889 0.274000
v -0.607491 0.697889 0.274000
v -0.845152 0.932766 0.274000
v -0.607491 0.932766 0.274000
v -0.085814 0.697889 0.274000
v -0.085814 0.932766 0.274000
vn 0.0000 0.0000 -1.0000
vn 0.0000 0.0000 1.0000
vn 0.0000 -1.0000 0.0000
vn 1.0000 0.0000 0.0000
vn -1.0000 0.0000 0.0000
vn 0.0000 1.0000 0.0000
vn -0.6774 -0.0728 -0.7320
vn -0.7071 0.0000 -0.7071
vn -0.7071 0.0000 0.7071
vn -0.6774 -0.0728 0.7320
vn 0.7123 -0.0173 -0.7017
vn 0.7289 0.1042 -0.6766
vn 0.7289 0.1042 0.6766
vn 0.7123 -0.0173 0.7017
vn -0.6329 -0.2311 -0.7389
vn -0.6329 -0.2311 0.7389
vn 0.6754 0.2707 -0.6859
vn 0.6755 0.2707 0.6859
vn -0.5068 -0.4160 -0.7550
vn -0.5068 -0.4160 0.7550
vn 0.5947 0.4392 -0.6734
vn 0.5947 0.4392 0.6734
vn -0.3154 -0.5804 -0.7508
vn -0.3154 -0.5804 0.7508
vn 0.4186 0.6139 -0.6692
vn 0.4186 0.6139 0.6692
vn -0.1797 -0.6713 -0.7190
vn -0.1797 -0.6713 0.7190
vn 0.2009 0.7087 -0.6763
vn 0.2009 0.7087 0.6763
vn -0.0425 -0.6697 -0.7414
vn -0.0425 -0.6697 0.7414
vn 0.0204 0.7289 -0.6843
vn 0.0204 0.7289 0.6843
vn 0.1545 -0.6519 -0.7423
vn 0.1545 -0.6520 0.7423
vn -0.1532 0.7185 -0.6784
vn -0.1532 0.7185 0.6784
vn 0.3756 -0.5238 -0.7645
vn 0.3756 -0.5238 0.7645
vn -0.4198 0.6271 -0.6561
vn -0.4198 0.6271 0.6561
vn 0.5728 -0.3203 -0.7545
vn 0.5728 -0.3203 0.7545
vn -0.6900 0.3242 -0.6471
vn -0.6900 0.3242 0.6471
vn 0.4734 -0.6490 -0.5954
vn 0.4734 -0.6491 0.5954
vn -0.6213 -0.5375 -0.5701
vn -0.6213 -0.5375 0.5701
vn -0.6774 0.0728 -0.7320
vn -0.6774 0.0728 0.7320
vn -0.6329 0.2311 -0.7389
vn -0.6329 0.2311 0.7389
vn 0.6794 -0.2654 -0.6840
vn 0.7209 -0.1145 -0.6834
vn 0.7209 -0.1145 0.6834
vn 0.6794 -0.2654 0.6840
vn -0.5068 0.4160 -0.7550
vn -0.5068 0.4160 0.7550
vn 0.5947 -0.4392 -0.6734
vn 0.5947 -0.4392 0.6734
vn -0.3154 0.5804 -0.7508
vn -0.3154 0.5804 0.7508
vn 0.4186 -0.6139 -0.6692
vn 0.4186 -0.6139 0.6692
vn -0.1797 0.6713 -0.7190
vn -0.1797 0.6713 0.7190
vn 0.2009 -0.7087 -0.6763
vn 0.2009 -0.7087 0.6763
vn -0.0425 0.6697 -0.7414
vn -0.0425 0.6697 0.7414
vn 0.0204 -0.7289 -0.6843
vn 0.0204 -0.7289 0.6843
vn 0.1223 0.6728 -0.7296
vn 0.1223 0.6728 0.7296
vn -0.1162 -0.7157 -0.6887
vn -0.1162 -0.7157 0.6887
vn 0.2366 0.6479 -0.7240
vn 0.2366 0.6480 0.7239
vn -0.2801 -0.6815 -0.6760
vn -0.2800 -0.6815 0.6760
vn 0.4401 0.2844 -0.8517
vn 0.4401 0.2844 0.8517
vn -0.6879 -0.3921 -0.6108
vn -0.6879 -0.3921 0.6108
usemtl Material
s off
f 1//1 2//1 4//1 3//1
f 3//1 4//1 6//1 5//1
f 5//1 6//1 8//1 7//1
f 7//1 8//1 10//1 9//1
f 9//1 10//1 12//1 11//1
f 11//1 12//1 14//1 13//1
f 13//1 14//1 16//1 15//1
f 15//1 16//1 18//1 17//1
f 17//1 18//1 20//1 19//1
f 19//1 20//1 22//1 21//1
f 1//1 23//1 24//1 2//1
f 23//1 25//1 26//1 24//1
f 25//1 27//1 28//1 26//1
f 27//1 29//1 30//1 28//1
f 29//1 31//1 32//1 30//1
f 31//1 33//1 34//1 32//1
f 33//1 35//1 36//1 34//1
f 35//1 37//1 38//1 36//1
f 37//1 39//1 40//1 38//1
f 39//1 41//1 42//1 40//1
f 42//1 41//1 43//1 44//1
f 42//1 44//1 46//1 45//1
f 49//2 50//2 48//2 47//2
f 51//2 52//2 50//2 49//2
f 53//2 54//2 52//2 51//2
f 55//2 56//2 54//2 53//2
f 57//2 58//2 56//2 55//2
f 59//2 60//2 58//2 57//2
f 61//2 62//2 60//2 59//2
f 63//2 64//2 62//2 61//2
f 65//2 66//2 64//2 63//2
f 67//2 68//2 66//2 65//2
f 48//2 70//2 69//2 47//2
f 70//2 72//2 71//2 69//2
f 72//2 74//2 73//2 71//2
f 74//2 76//2 75//2 73//2
f 76//2 78//2 77//2 75//2
f 78//2 80//2 79//2 77//2
f 80//2 82//2 81//2 79//2
f 82//2 84//2 83//2 81//2
f 84//2 86//2 85//2 83//2
f 86//2 88//2 87//2 85//2
f 90//2 89//2 87//2 88//2
f 91//2 92//2 90//2 88//2
f 21//3 22//3 68//3 67//3
f 40//4 42//4 88//4 86//4
f 41//5 39//5 85//5 87//5
f 44//6 43//6 89//6 90//6
f 43//5 41//5 87//5 89//5
f 45//4 46//4 92//4 91//4
f 46//6 44//6 90//6 92//6
f 42//3 45//3 91//3 88//3
s 1
f 4//7 2//8 48//9 50//10
f 1//11 3//12 49//13 47//14
f 6//15 4//7 50//10 52//16
f 3//12 5//17 51//18 49//13
f 8//19 6//15 52//16 54//20
f 5//17 7//21 53//22 51//18
f 10//23 8//19 54//20 56//24
f 7//21 9//25 55//26 53//22
f 12//27 10//23 56//24 58//28
f 9//25 11//29 57//30 55//26
f 14//31 12//27 58//28 60//32
f 11//29 13//33 59//34 57//30
f 16//35 14//31 60//32 62//36
f 13//33 15//37 61//38 59//34
f 18//39 16//35 62//36 64//40
f 15//37 17//41 63//42 61//38
f 20//43 18//39 64//40 66//44
f 17//41 19//45 65//46 63//42
f 22//47 20//43 66//44 68//48
f 19//45 21//49 67//50 65//46
f 2//8 24//51 70//52 48//9
f 24//51 26//53 72//54 70//52
f 25//55 23//56 69//57 71//58
f 26//53 28//59 74//60 72//54
f 27//61 25//55 71//58 73//62
f 28//59 30//63 76//64 74//60
f 29//65 27//61 73//62 75//66
f 30//63 32//67 78//68 76//64
f 31//69 29//65 75//66 77//70
f 32//67 34//71 80//72 78//68
f 33//73 31//69 77//70 79//74
f 34//71 36//75 82//76 80//72
f 35//77 33//73 79//74 81//78
f 36//75 38//79 84//80 82//76
f 37//81 35//77 81//78 83//82
f 38//79 40//83 86//84 84//80
f 39//85 37//81 83//82 85//86
f 23//56 1//11 47//14 69//57
