# Blender v2.77 (sub 0) OBJ File: 'text.blend'
# www.blender.org
mtllib meshM.mtl
o Mesh_M_Cube.013
v 0.877508 1.857032 0.000000
v 0.877508 0.000529 0.000000
v 0.608351 1.857032 0.000000
v 0.608351 0.000529 0.000000
v 0.363583 1.466969 0.000000
v 0.474840 1.857032 0.000000
v 0.608351 1.466969 0.000000
v 0.877508 1.466969 0.000000
v 0.011286 0.292577 0.000000
v 0.217710 0.292577 0.000000
v -0.363581 1.466969 0.000000
v -0.149151 0.009401 0.000000
v -0.608349 0.000529 0.000000
v -0.010458 0.009401 0.000000
v -0.217709 0.292577 0.000000
v -0.608349 1.857032 0.000000
v -0.011284 0.292577 0.000000
v -0.877506 1.466969 0.000000
v -0.877506 0.000529 0.000000
v -0.877506 1.857032 0.000000
v 0.010460 0.009401 0.000000
v 0.149153 0.009401 0.000000
v -0.608349 1.466969 0.000000
v -0.474838 1.857032 0.000000
v 0.877508 1.857032 0.274000
v 0.877508 0.000529 0.274000
v 0.608351 1.857032 0.274000
v 0.608351 0.000529 0.274000
v 0.363583 1.466969 0.274000
v 0.474840 1.857032 0.274000
v 0.608351 1.466969 0.273992
v 0.877508 1.466969 0.274000
v 0.011286 0.292577 0.274000
v 0.217710 0.292577 0.274000
v -0.363581 1.466969 0.274000
v -0.149151 0.009401 0.273992
v -0.608349 0.000529 0.274000
v -0.010458 0.009401 0.274000
v -0.217709 0.292577 0.274000
v -0.608349 1.857032 0.274000
v -0.011284 0.292577 0.274000
v -0.877506 1.466969 0.274000
v -0.877506 0.000529 0.274000
v -0.877506 1.857032 0.274000
v 0.010460 0.009401 0.274000
v 0.149153 0.009401 0.273992
v -0.608349 1.466969 0.273992
v -0.474838 1.857032 0.274000
vn 0.0000 0.0000 -1.0000
vn -0.0000 0.0000 1.0000
vn 0.0000 1.0000 0.0000
vn 0.0000 -1.0000 0.0000
vn 1.0000 0.0000 0.0000
vn -1.0000 -0.0000 0.0000
vn -0.9616 0.2743 0.0000
vn -0.9578 0.2873 0.0000
vn 0.9489 -0.3156 0.0000
vn -0.9719 -0.2353 0.0000
vn -0.9489 -0.3156 0.0000
vn 0.9578 0.2873 0.0000
vn 0.9719 -0.2353 0.0000
vn 0.9616 0.2743 0.0000
usemtl Material
s off
f 7//1 8//1 2//1 4//1
f 3//1 1//1 8//1 7//1
f 3//1 7//1 5//1 6//1
f 5//1 7//1 10//1 9//1
f 17//1 14//1 12//1 15//1
f 16//1 23//1 18//1 20//1
f 11//1 17//1 15//1 23//1
f 16//1 24//1 11//1 23//1
f 9//1 10//1 22//1 21//1
f 23//1 13//1 19//1 18//1
f 17//1 9//1 21//1 14//1
f 28//2 26//2 32//2 31//2
f 31//2 32//2 25//2 27//2
f 30//2 29//2 31//2 27//2
f 33//2 34//2 31//2 29//2
f 39//2 36//2 38//2 41//2
f 44//2 42//2 47//2 40//2
f 47//2 39//2 41//2 35//2
f 47//2 35//2 48//2 40//2
f 45//2 46//2 34//2 33//2
f 42//2 43//2 37//2 47//2
f 38//2 45//2 33//2 41//2
f 1//3 3//3 27//3 25//3
f 4//4 2//4 26//4 28//4
f 2//5 8//5 32//5 26//5
f 7//6 4//6 28//6 31//6
f 6//7 5//7 29//7 30//7
f 8//5 1//5 25//5 32//5
f 3//3 6//3 30//3 27//3
f 5//8 9//8 33//8 29//8
f 10//9 7//9 31//9 34//9
f 18//6 19//6 43//6 42//6
f 15//10 12//10 36//10 39//10
f 12//4 14//4 38//4 36//4
f 23//11 15//11 39//11 47//11
f 24//3 16//3 40//3 48//3
f 17//12 11//12 35//12 41//12
f 19//4 13//4 37//4 43//4
f 16//3 20//3 44//3 40//3
f 20//6 18//6 42//6 44//6
f 21//4 22//4 46//4 45//4
f 22//13 10//13 34//13 46//13
f 13//5 23//5 47//5 37//5
f 11//14 24//14 48//14 35//14
f 14//4 21//4 45//4 38//4
f 9//3 17//3 41//3 33//3
