# Blender v2.77 (sub 0) OBJ File: 'text.blend'
# www.blender.org
mtllib meshX.mtl
o Mesh_X_Cube.024
v 0.131910 0.908679 0.000000
v -0.131907 0.908679 0.000000
v 0.000000 1.178016 0.000000
v -0.720016 1.813426 -0.000000
v -0.422680 1.813426 -0.000000
v 0.720018 1.813426 -0.000000
v 0.422682 1.813426 -0.000000
v 0.000000 0.639341 0.000000
v -0.879454 0.003932 -0.000000
v -0.516277 0.003932 -0.000000
v 0.879456 0.003932 -0.000000
v 0.516279 0.003932 -0.000000
v 0.131910 0.908679 0.274000
v -0.131907 0.908679 0.274000
v 0.000000 1.178016 0.274000
v -0.720016 1.813426 0.274000
v -0.422680 1.813426 0.274000
v 0.720018 1.813426 0.274000
v 0.422682 1.813426 0.274000
v 0.000000 0.639341 0.274000
v -0.879454 0.003932 0.274000
v -0.516277 0.003932 0.274000
v 0.879456 0.003932 0.274000
v 0.516279 0.003932 0.274000
vn 0.0000 -0.0000 -1.0000
vn -0.0000 0.0000 1.0000
vn 0.0000 1.0000 0.0000
vn 0.8326 0.5539 0.0000
vn -0.8384 -0.5450 0.0000
vn 0.8384 -0.5450 0.0000
vn -0.8326 0.5539 0.0000
vn 0.0000 -1.0000 0.0000
vn 0.7761 -0.6306 0.0000
vn -0.7709 0.6370 0.0000
vn -0.7761 -0.6306 0.0000
vn 0.7709 0.6370 0.0000
usemtl Material
s off
f 3//1 2//1 4//1 5//1
f 3//1 7//1 6//1 1//1
f 8//1 10//1 9//1 2//1
f 8//1 1//1 11//1 12//1
f 3//1 1//1 8//1 2//1
f 17//2 16//2 14//2 15//2
f 13//2 18//2 19//2 15//2
f 14//2 21//2 22//2 20//2
f 24//2 23//2 13//2 20//2
f 14//2 20//2 13//2 15//2
f 5//3 4//3 16//3 17//3
f 3//4 5//4 17//4 15//4
f 4//5 2//5 14//5 16//5
f 6//3 7//3 19//3 18//3
f 1//6 6//6 18//6 13//6
f 7//7 3//7 15//7 19//7
f 9//8 10//8 22//8 21//8
f 10//9 8//9 20//9 22//9
f 12//8 11//8 23//8 24//8
f 2//10 9//10 21//10 14//10
f 8//11 12//11 24//11 20//11
f 11//12 1//12 13//12 23//12
